<?xml version="1.0" encoding="UTF-8"?>
<svg width="116px" height="143px" viewBox="0 0 116 143" version="1.1" xmlns="http://www.w3.org/2000/svg" xmlns:xlink="http://www.w3.org/1999/xlink">
    <!-- Generator: Sketch 53.2 (72643) - https://sketchapp.com -->
    <title>Group</title>
    <desc>Created with Sketch.</desc>
    <g id="Website" stroke="none" stroke-width="1" fill="none" fill-rule="evenodd">
        <g id="site-2" transform="translate(-270.000000, -4057.000000)">
            <g id="Group-15" transform="translate(101.000000, 3963.000000)">
                <g id="Group" transform="translate(170.000000, 95.000000)">
                    <circle id="Oval" stroke="#9A7719" fill="#FDE29A" fill-rule="nonzero" cx="56.9753086" cy="63.1111111" r="56.9753086"></circle>
                    <circle id="Oval" stroke="#9A7719" fill="#FDE29A" fill-rule="nonzero" cx="56.9753086" cy="56.9753086" r="56.9753086"></circle>
                    <circle id="Oval" stroke="#9A7719" fill="#FDD66F" fill-rule="nonzero" cx="56.9753086" cy="56.9753086" r="48.7098765"></circle>
                    <path d="M11.5737292,59.2065095 C11.4554739,57.8942366 11.3950617,56.5652844 11.3950617,55.2222222 C11.3950617,31.0171499 31.0171499,11.3950617 55.2222222,11.3950617 C79.4272946,11.3950617 99.0493827,31.0171499 99.0493827,55.2222222 C99.0493827,56.5652844 98.9889705,57.8942366 98.8707153,59.2065095 C96.8577386,36.8686027 78.0842324,19.3636364 55.2222222,19.3636364 C32.360212,19.3636364 13.5867058,36.8686027 11.5737292,59.2065095 Z" id="Combined-Shape" fill="#F5CC5F" fill-rule="nonzero"></path>
                    <rect id="Rectangle" fill="#9A7719" x="54.345679" y="115.703704" width="1" height="3.50617284" rx="0.5"></rect>
                    <rect id="Rectangle" fill="#9A7719" x="56.9753086" y="115.703704" width="1" height="3.50617284" rx="0.5"></rect>
                    <rect id="Rectangle" fill="#9A7719" x="59.6049383" y="115.703704" width="1" height="3.50617284" rx="0.5"></rect>
                    <path d="M52.154321,115.703704 C52.3963717,115.703704 52.5925926,115.899925 52.5925926,116.141975 L52.5925926,117.895062 C52.5925926,118.137112 52.3963717,118.333333 52.154321,118.333333 C51.9122703,118.333333 51.7160494,118.137112 51.7160494,117.895062 L51.7160494,116.141975 C51.7160494,115.899925 51.9122703,115.703704 52.154321,115.703704 Z M49.5246914,115.703704 C49.7667421,115.703704 49.962963,115.899925 49.962963,116.141975 L49.962963,117.895062 C49.962963,118.137112 49.7667421,118.333333 49.5246914,118.333333 C49.2826406,118.333333 49.0864198,118.137112 49.0864198,117.895062 L49.0864198,116.141975 C49.0864198,115.899925 49.2826406,115.703704 49.5246914,115.703704 Z M46.8950617,114.82716 C47.1371125,114.82716 47.3333333,115.023381 47.3333333,115.265432 L47.3333333,117.895062 C47.3333333,118.137112 47.1371125,118.333333 46.8950617,118.333333 C46.653011,118.333333 46.4567901,118.137112 46.4567901,117.895062 L46.4567901,115.265432 C46.4567901,115.023381 46.653011,114.82716 46.8950617,114.82716 Z M44.2654321,113.950617 C44.5074828,113.950617 44.7037037,114.146838 44.7037037,114.388889 L44.7037037,117.018519 C44.7037037,117.260569 44.5074828,117.45679 44.2654321,117.45679 C44.0233814,117.45679 43.8271605,117.260569 43.8271605,117.018519 L43.8271605,114.388889 C43.8271605,114.146838 44.0233814,113.950617 44.2654321,113.950617 Z M41.6358025,113.074074 C41.8778532,113.074074 42.0740741,113.270295 42.0740741,113.512346 L42.0740741,116.141975 C42.0740741,116.384026 41.8778532,116.580247 41.6358025,116.580247 C41.3937517,116.580247 41.1975309,116.384026 41.1975309,116.141975 L41.1975309,113.512346 C41.1975309,113.270295 41.3937517,113.074074 41.6358025,113.074074 Z M39.0061728,112.197531 C39.2482236,112.197531 39.4444444,112.393752 39.4444444,112.635802 L39.4444444,115.265432 C39.4444444,115.507483 39.2482236,115.703704 39.0061728,115.703704 C38.7641221,115.703704 38.5679012,115.507483 38.5679012,115.265432 L38.5679012,112.635802 C38.5679012,112.393752 38.7641221,112.197531 39.0061728,112.197531 Z M36.3765432,111.320988 C36.6185939,111.320988 36.8148148,111.517209 36.8148148,111.759259 L36.8148148,114.388889 C36.8148148,114.63094 36.6185939,114.82716 36.3765432,114.82716 C36.1344925,114.82716 35.9382716,114.63094 35.9382716,114.388889 L35.9382716,111.759259 C35.9382716,111.517209 36.1344925,111.320988 36.3765432,111.320988 Z M33.7469136,110.444444 C33.9889643,110.444444 34.1851852,110.640665 34.1851852,110.882716 L34.1851852,113.512346 C34.1851852,113.754396 33.9889643,113.950617 33.7469136,113.950617 C33.5048629,113.950617 33.308642,113.754396 33.308642,113.512346 L33.308642,110.882716 C33.308642,110.640665 33.5048629,110.444444 33.7469136,110.444444 Z M31.117284,109.567901 C31.3593347,109.567901 31.5555556,109.764122 31.5555556,110.006173 L31.5555556,111.759259 C31.5555556,112.00131 31.3593347,112.197531 31.117284,112.197531 C30.8752332,112.197531 30.6790123,112.00131 30.6790123,111.759259 L30.6790123,110.006173 C30.6790123,109.764122 30.8752332,109.567901 31.117284,109.567901 Z M28.4876543,107.814815 C28.729705,107.814815 28.9259259,108.011036 28.9259259,108.253086 L28.9259259,110.006173 C28.9259259,110.248224 28.729705,110.444444 28.4876543,110.444444 C28.2456036,110.444444 28.0493827,110.248224 28.0493827,110.006173 L28.0493827,108.253086 C28.0493827,108.011036 28.2456036,107.814815 28.4876543,107.814815 Z M25.8580247,106.061728 C26.1000754,106.061728 26.2962963,106.257949 26.2962963,106.5 L26.2962963,108.253086 C26.2962963,108.495137 26.1000754,108.691358 25.8580247,108.691358 C25.615974,108.691358 25.4197531,108.495137 25.4197531,108.253086 L25.4197531,106.5 C25.4197531,106.257949 25.615974,106.061728 25.8580247,106.061728 Z M23.2283951,104.308642 C23.4704458,104.308642 23.6666667,104.504863 23.6666667,104.746914 L23.6666667,106.5 C23.6666667,106.742051 23.4704458,106.938272 23.2283951,106.938272 C22.9863443,106.938272 22.7901235,106.742051 22.7901235,106.5 L22.7901235,104.746914 C22.7901235,104.504863 22.9863443,104.308642 23.2283951,104.308642 Z M20.5987654,102.555556 C20.8408162,102.555556 21.037037,102.751776 21.037037,102.993827 L21.037037,104.746914 C21.037037,104.988964 20.8408162,105.185185 20.5987654,105.185185 C20.3567147,105.185185 20.1604938,104.988964 20.1604938,104.746914 L20.1604938,102.993827 C20.1604938,102.751776 20.3567147,102.555556 20.5987654,102.555556 Z M17.9691358,100.802469 C18.2111865,100.802469 18.4074074,100.99869 18.4074074,101.240741 L18.4074074,102.117284 C18.4074074,102.359335 18.2111865,102.555556 17.9691358,102.555556 C17.7270851,102.555556 17.5308642,102.359335 17.5308642,102.117284 L17.5308642,101.240741 C17.5308642,100.99869 17.7270851,100.802469 17.9691358,100.802469 Z M15.3395062,98.1728395 C15.5815569,98.1728395 15.7777778,98.3690604 15.7777778,98.6111111 L15.7777778,99.4876543 C15.7777778,99.729705 15.5815569,99.9259259 15.3395062,99.9259259 C15.0974554,99.9259259 14.9012346,99.729705 14.9012346,99.4876543 L14.9012346,98.6111111 C14.9012346,98.3690604 15.0974554,98.1728395 15.3395062,98.1728395 Z M12.7098765,94.6666667 C12.9519273,94.6666667 13.1481481,94.8628875 13.1481481,95.1049383 L13.1481481,95.9814815 C13.1481481,96.2235322 12.9519273,96.4197531 12.7098765,96.4197531 C12.4678258,96.4197531 12.2716049,96.2235322 12.2716049,95.9814815 L12.2716049,95.1049383 C12.2716049,94.8628875 12.4678258,94.6666667 12.7098765,94.6666667 Z M10.0802469,92.037037 C10.3222976,92.037037 10.5185185,92.2332579 10.5185185,92.4753086 C10.5185185,92.7173594 10.3222976,92.9135802 10.0802469,92.9135802 C9.83819619,92.9135802 9.64197531,92.7173594 9.64197531,92.4753086 C9.64197531,92.2332579 9.83819619,92.037037 10.0802469,92.037037 Z" id="Combined-Shape" fill="#9A7719"></path>
                    <path d="M104.746914,115.703704 C104.988964,115.703704 105.185185,115.899925 105.185185,116.141975 L105.185185,118.771605 C105.185185,119.013656 104.988964,119.209877 104.746914,119.209877 C104.504863,119.209877 104.308642,119.013656 104.308642,118.771605 L104.308642,116.141975 C104.308642,115.899925 104.504863,115.703704 104.746914,115.703704 Z M102.117284,115.703704 C102.359335,115.703704 102.555556,115.899925 102.555556,116.141975 L102.555556,117.895062 C102.555556,118.137112 102.359335,118.333333 102.117284,118.333333 C101.875233,118.333333 101.679012,118.137112 101.679012,117.895062 L101.679012,116.141975 C101.679012,115.899925 101.875233,115.703704 102.117284,115.703704 Z M99.4876543,114.82716 C99.729705,114.82716 99.9259259,115.023381 99.9259259,115.265432 L99.9259259,117.895062 C99.9259259,118.137112 99.729705,118.333333 99.4876543,118.333333 C99.2456036,118.333333 99.0493827,118.137112 99.0493827,117.895062 L99.0493827,115.265432 C99.0493827,115.023381 99.2456036,114.82716 99.4876543,114.82716 Z M96.8580247,113.950617 C97.1000754,113.950617 97.2962963,114.146838 97.2962963,114.388889 L97.2962963,117.018519 C97.2962963,117.260569 97.1000754,117.45679 96.8580247,117.45679 C96.615974,117.45679 96.4197531,117.260569 96.4197531,117.018519 L96.4197531,114.388889 C96.4197531,114.146838 96.615974,113.950617 96.8580247,113.950617 Z M94.2283951,113.074074 C94.4704458,113.074074 94.6666667,113.270295 94.6666667,113.512346 L94.6666667,116.141975 C94.6666667,116.384026 94.4704458,116.580247 94.2283951,116.580247 C93.9863443,116.580247 93.7901235,116.384026 93.7901235,116.141975 L93.7901235,113.512346 C93.7901235,113.270295 93.9863443,113.074074 94.2283951,113.074074 Z M91.5987654,112.197531 C91.8408162,112.197531 92.037037,112.393752 92.037037,112.635802 L92.037037,115.265432 C92.037037,115.507483 91.8408162,115.703704 91.5987654,115.703704 C91.3567147,115.703704 91.1604938,115.507483 91.1604938,115.265432 L91.1604938,112.635802 C91.1604938,112.393752 91.3567147,112.197531 91.5987654,112.197531 Z M88.9691358,111.320988 C89.2111865,111.320988 89.4074074,111.517209 89.4074074,111.759259 L89.4074074,114.388889 C89.4074074,114.63094 89.2111865,114.82716 88.9691358,114.82716 C88.7270851,114.82716 88.5308642,114.63094 88.5308642,114.388889 L88.5308642,111.759259 C88.5308642,111.517209 88.7270851,111.320988 88.9691358,111.320988 Z M86.3395062,110.444444 C86.5815569,110.444444 86.7777778,110.640665 86.7777778,110.882716 L86.7777778,113.512346 C86.7777778,113.754396 86.5815569,113.950617 86.3395062,113.950617 C86.0974554,113.950617 85.9012346,113.754396 85.9012346,113.512346 L85.9012346,110.882716 C85.9012346,110.640665 86.0974554,110.444444 86.3395062,110.444444 Z M83.7098765,109.567901 C83.9519273,109.567901 84.1481481,109.764122 84.1481481,110.006173 L84.1481481,111.759259 C84.1481481,112.00131 83.9519273,112.197531 83.7098765,112.197531 C83.4678258,112.197531 83.2716049,112.00131 83.2716049,111.759259 L83.2716049,110.006173 C83.2716049,109.764122 83.4678258,109.567901 83.7098765,109.567901 Z M81.0802469,107.814815 C81.3222976,107.814815 81.5185185,108.011036 81.5185185,108.253086 L81.5185185,110.006173 C81.5185185,110.248224 81.3222976,110.444444 81.0802469,110.444444 C80.8381962,110.444444 80.6419753,110.248224 80.6419753,110.006173 L80.6419753,108.253086 C80.6419753,108.011036 80.8381962,107.814815 81.0802469,107.814815 Z M78.4506173,106.061728 C78.692668,106.061728 78.8888889,106.257949 78.8888889,106.5 L78.8888889,108.253086 C78.8888889,108.495137 78.692668,108.691358 78.4506173,108.691358 C78.2085666,108.691358 78.0123457,108.495137 78.0123457,108.253086 L78.0123457,106.5 C78.0123457,106.257949 78.2085666,106.061728 78.4506173,106.061728 Z M75.8209877,104.308642 C76.0630384,104.308642 76.2592593,104.504863 76.2592593,104.746914 L76.2592593,106.5 C76.2592593,106.742051 76.0630384,106.938272 75.8209877,106.938272 C75.5789369,106.938272 75.382716,106.742051 75.382716,106.5 L75.382716,104.746914 C75.382716,104.504863 75.5789369,104.308642 75.8209877,104.308642 Z M73.191358,102.555556 C73.4334087,102.555556 73.6296296,102.751776 73.6296296,102.993827 L73.6296296,104.746914 C73.6296296,104.988964 73.4334087,105.185185 73.191358,105.185185 C72.9493073,105.185185 72.7530864,104.988964 72.7530864,104.746914 L72.7530864,102.993827 C72.7530864,102.751776 72.9493073,102.555556 73.191358,102.555556 Z M70.5617284,100.802469 C70.8037791,100.802469 71,100.99869 71,101.240741 L71,102.117284 C71,102.359335 70.8037791,102.555556 70.5617284,102.555556 C70.3196777,102.555556 70.1234568,102.359335 70.1234568,102.117284 L70.1234568,101.240741 C70.1234568,100.99869 70.3196777,100.802469 70.5617284,100.802469 Z M67.9320988,98.1728395 C68.1741495,98.1728395 68.3703704,98.3690604 68.3703704,98.6111111 L68.3703704,99.4876543 C68.3703704,99.729705 68.1741495,99.9259259 67.9320988,99.9259259 C67.690048,99.9259259 67.4938272,99.729705 67.4938272,99.4876543 L67.4938272,98.6111111 C67.4938272,98.3690604 67.690048,98.1728395 67.9320988,98.1728395 Z M65.3024691,94.6666667 C65.5445199,94.6666667 65.7407407,94.8628875 65.7407407,95.1049383 L65.7407407,95.9814815 C65.7407407,96.2235322 65.5445199,96.4197531 65.3024691,96.4197531 C65.0604184,96.4197531 64.8641975,96.2235322 64.8641975,95.9814815 L64.8641975,95.1049383 C64.8641975,94.8628875 65.0604184,94.6666667 65.3024691,94.6666667 Z M62.6728395,92.037037 C62.9148902,92.037037 63.1111111,92.2332579 63.1111111,92.4753086 C63.1111111,92.7173594 62.9148902,92.9135802 62.6728395,92.9135802 C62.4307888,92.9135802 62.2345679,92.7173594 62.2345679,92.4753086 C62.2345679,92.2332579 62.4307888,92.037037 62.6728395,92.037037 Z" id="Combined-Shape" fill="#9A7719" transform="translate(83.709877, 105.623457) scale(-1, 1) translate(-83.709877, -105.623457) "></path>
                    <path d="M104.308642,48.2098765 C104.308642,21.5842969 82.724345,2.84217094e-14 56.0987654,2.84217094e-14 C29.4731858,2.84217094e-14 7.88888889,21.5842969 7.88888889,48.2098765 C7.88888889,74.8354561 104.308642,74.8354561 104.308642,48.2098765 Z" id="Oval" fill="#FDE29A" fill-rule="nonzero" opacity="0.323009673"></path>
                    <path d="M56.9286179,73.8636556 L44.1027024,73.8636556 L35.9382716,43.8271605 L53.3011629,58.4576723 L56.9286179,48.6378426 L60.7534647,58.4576723 L78.0123457,43.8271605 L69.9519252,73.8636556 L56.9286179,73.8636556 Z M44.1133312,78.6789353 L69.9534436,78.6789353 L69.9534436,81.4252692 L44.1133312,81.4252692 L44.1133312,78.6789353 Z" id="Combined-Shape" fill="#EFB41F"></path>
                    <ellipse id="Oval" fill="#E8E8EE" cx="56.9753086" cy="136.302469" rx="34.1851852" ry="5.69753086"></ellipse>
                </g>
            </g>
        </g>
    </g>
</svg>