<svg width="53" height="30" viewBox="0 0 53 30" fill="none" xmlns="http://www.w3.org/2000/svg">
<path fill-rule="evenodd" clip-rule="evenodd" d="M52.6738 7.10582L45.789 3.42934C45.5316 3.29139 45.1819 3.37534 45.0132 3.61543L38.7133 12.5921C38.5452 12.8327 38.1739 12.9748 37.8891 12.9079L34.0059 11.9992C33.7205 11.9328 33.4543 11.6405 33.4134 11.3494L31.9009 0.528901C31.86 0.237741 31.5868 0 31.2944 0H21.726C21.4336 0 21.1604 0.237741 21.1184 0.528901L19.5673 11.3587C19.5253 11.6499 19.2585 11.9428 18.9742 12.0097L15.0794 12.9243C14.7951 12.9906 14.4244 12.8492 14.2552 12.6091L7.95585 3.63539C7.78714 3.3953 7.43864 3.31135 7.18004 3.4493L0.326169 7.10582C0.0681497 7.24377 -0.0649465 7.58365 0.0313731 7.86131L7.52562 29.4969C7.62253 29.7746 7.94009 30 8.23255 30H44.7885C45.0803 30 45.3985 29.7746 45.4942 29.4969L52.9686 7.86131C53.0649 7.58365 52.9319 7.24377 52.6738 7.10582Z" fill="#7B87AF"/>
</svg>
