<?xml version="1.0" encoding="UTF-8"?>
<svg width="23px" height="20px" viewBox="0 0 23 20" version="1.1" xmlns="http://www.w3.org/2000/svg" xmlns:xlink="http://www.w3.org/1999/xlink">
    <!-- Generator: Sketch 53.2 (72643) - https://sketchapp.com -->
    <title>Group 7</title>
    <desc>Created with Sketch.</desc>
    <g id="Website" stroke="none" stroke-width="1" fill="none" fill-rule="evenodd">
        <g id="Artboard" transform="translate(-231.000000, -1468.000000)">
            <g id="Group-7" transform="translate(231.000000, 1468.000000)">
                <path d="M22,6.39488462e-14 L22,20 L0,20 L0,19.8685236 C10.5092303,18.7573123 19.1498382,10.7139177 22,6.3504757e-14 Z" id="Combined-Shape" fill="#E1A817"></path>
                <path d="M1.5,19 C1.77614237,19 2,19.2238576 2,19.5 C2,19.7761424 1.77614237,20 1.5,20 C1.22385763,20 1,19.7761424 1,19.5 C1,19.2238576 1.22385763,19 1.5,19 Z M4.5,18 C4.77614237,18 5,18.2238576 5,18.5 L5,19.5 C5,19.7761424 4.77614237,20 4.5,20 C4.22385763,20 4,19.7761424 4,19.5 L4,18.5 C4,18.2238576 4.22385763,18 4.5,18 Z M7.5,16 C7.77614237,16 8,16.2238576 8,16.5 L8,19.5 C8,19.7761424 7.77614237,20 7.5,20 C7.22385763,20 7,19.7761424 7,19.5 L7,16.5 C7,16.2238576 7.22385763,16 7.5,16 Z M10.5,14 C10.7761424,14 11,14.2238576 11,14.5 L11,19.5 C11,19.7761424 10.7761424,20 10.5,20 C10.2238576,20 10,19.7761424 10,19.5 L10,14.5 C10,14.2238576 10.2238576,14 10.5,14 Z M13.5,11 C13.7761424,11 14,11.2238576 14,11.5 L14,19.5 C14,19.7761424 13.7761424,20 13.5,20 C13.2238576,20 13,19.7761424 13,19.5 L13,11.5 C13,11.2238576 13.2238576,11 13.5,11 Z M16.5,7 C16.7761424,7 17,7.22385763 17,7.5 L17,19.5 C17,19.7761424 16.7761424,20 16.5,20 C16.2238576,20 16,19.7761424 16,19.5 L16,7.5 C16,7.22385763 16.2238576,7 16.5,7 Z M19.5,3 C19.7761424,3 20,3.22385763 20,3.5 L20,19.5 C20,19.7761424 19.7761424,20 19.5,20 C19.2238576,20 19,19.7761424 19,19.5 L19,3.5 C19,3.22385763 19.2238576,3 19.5,3 Z M22.5,-7.10542736e-14 C22.7761424,-7.11050001e-14 23,0.223857625 23,0.5 L23,19.5 C23,19.7761424 22.7761424,20 22.5,20 C22.2238576,20 22,19.7761424 22,19.5 L22,0.5 C22,0.223857625 22.2238576,-7.1003547e-14 22.5,-7.10542736e-14 Z" id="Combined-Shape" fill="#AD810F"></path>
            </g>
        </g>
    </g>
</svg>