<svg width="157" height="13" viewBox="0 0 157 13" fill="none" xmlns="http://www.w3.org/2000/svg">
<path fill-rule="evenodd" clip-rule="evenodd" d="M19.2909 1.48605L22.1915 3.07919C22.3002 3.13897 22.3563 3.28625 22.3157 3.40657L19.1667 12.782C19.1264 12.9023 18.9923 13 18.8694 13H3.46837C3.34516 13 3.21137 12.9023 3.17054 12.782L0.0132175 3.40657C-0.027362 3.28625 0.0287114 3.13897 0.137415 3.07919L3.02495 1.4947C3.1339 1.43492 3.28072 1.47129 3.3518 1.57533L6.00569 5.46394C6.07701 5.56798 6.23318 5.62928 6.35295 5.60054L7.99384 5.20422C8.11361 5.17522 8.226 5.04829 8.24371 4.92212L8.89716 0.22919C8.91487 0.103021 9.02997 0 9.15318 0H13.1843C13.3075 0 13.4226 0.103021 13.4398 0.22919L14.0771 4.91805C14.0943 5.04422 14.2064 5.1709 14.3267 5.19964L15.9627 5.59341C16.0827 5.62241 16.2391 5.56085 16.3099 5.45656L18.9641 1.56668C19.0351 1.46265 19.1824 1.42627 19.2909 1.48605ZM128.14 8.17276C128.14 5.41993 130.032 3.34552 132.738 3.34552C135.444 3.34552 137.336 5.41993 137.336 8.17276C137.336 10.9256 135.444 13 132.738 13C130.032 13 128.14 10.9256 128.14 8.17276ZM39.6057 11.3431V12.8043H33.3539V3.54122H39.6057V5.00244H34.8699V7.37692H39.3927V8.83814H34.8699V11.3431H39.6057ZM57.8664 11.3431V12.8043H52.2284V3.54122H53.7444V11.3431H57.8664ZM76.2147 12.8043V11.3431H71.4788V8.83814H76.0017V7.37692H71.4788V5.00244H76.2147V3.54122H69.9628V12.8043H76.2147ZM89.3887 12.8043H87.785L91.2304 3.54122H92.8466L96.3045 12.8043H94.6507L94.0118 11.0169H90.0276L89.3887 12.8043ZM92.0072 5.49821H92.0322L93.5106 9.58179H90.5288L92.0072 5.49821ZM109.754 6.15054V12.8043H108.263V3.54122H109.804L114.127 10.208V3.54122H115.618V12.8043H114.064L109.754 6.15054ZM132.738 11.4866C130.997 11.4866 129.744 10.1689 129.744 8.17276C129.744 6.17663 130.997 4.85892 132.738 4.85892C134.48 4.85892 135.732 6.17663 135.732 8.17276C135.732 10.1689 134.48 11.4866 132.738 11.4866ZM155.221 12.8043H157L154.958 8.95555C156.136 8.56416 156.699 7.57262 156.699 6.34624C156.699 4.72846 155.735 3.54122 153.768 3.54122H149.859V12.8043H151.375V9.15125H153.417L155.221 12.8043ZM155.171 6.34624C155.171 5.55039 154.72 5.00244 153.78 5.00244H151.375V7.69004H153.78C154.72 7.69004 155.171 7.14208 155.171 6.34624Z" fill="#171A25"/>
</svg>
