<svg xmlns="http://www.w3.org/2000/svg" viewBox="0 0 387.9 77.72"><defs><style>.cls-1{fill:#fff;}</style></defs><title>Asset 17</title><g id="Layer_2" data-name="Layer 2"><g id="Layer_1-2" data-name="Layer 1"><path class="cls-1" d="M0,20.49H35.59v9.06h-25v14H33.47v8.9H10.61V68.33H36.25v9.06H0Z"/><path class="cls-1" d="M56.74,20.49H67.36V68.16H90.54v9.23H56.74Z"/><path class="cls-1" d="M108.67,20.49h35.6v9.06h-25v14h22.85v8.9H119.29V68.33h25.63v9.06H108.67Z"/><path class="cls-1" d="M162.8,77.39V64.57a17.84,17.84,0,0,1,1-5.14l14-39h11.19l13.87,39a16.92,16.92,0,0,1,1,5.14V77.39H193.5V64.9H172.76V77.39Zm12.41-21.31h15.84l-7.92-24.33Z"/><path class="cls-1" d="M234.24,40.65V77.39h-10V20.49h9.8l20.33,36.65V20.49h10v56.9h-9.72Z"/><path class="cls-1" d="M298.58,77.72c-7.75,0-12-4.25-12-12V32.16c0-7.75,4.25-12,12-12h16.09c7.75,0,12,4.25,12,12V65.71c0,7.76-4.25,12-12,12Zm-1.39-12.33a2.91,2.91,0,0,0,3.19,3.26h12.49a2.84,2.84,0,0,0,3.18-3.18V32.41q0-3.19-3.18-3.19H300.38c-2.12,0-3.19,1.06-3.19,3.19Z"/><path class="cls-1" d="M369.53,55.43h-10v22H348.88V20.49h26.86c7.75,0,12,4.24,12,12V43.43c0,6-2.61,10-7.43,11.43l7.59,22.53H376.55Zm-10-26v17H374c2.12,0,3.1-1.06,3.1-3.19V32.65c0-2-1-3.18-3.1-3.18Z"/><path class="cls-1" d="M317.79,3.05l-3-1.58a.26.26,0,0,0-.33.08L311.77,5.4a.36.36,0,0,1-.35.13l-1.68-.38a.37.37,0,0,1-.25-.28L308.84.23a.28.28,0,0,0-.27-.23h-4.12a.26.26,0,0,0-.26.23l-.67,4.64a.37.37,0,0,1-.26.28l-1.68.39a.36.36,0,0,1-.35-.13l-2.72-3.85a.26.26,0,0,0-.33-.08l-3,1.57a.28.28,0,0,0-.13.32l3.24,9.28a.33.33,0,0,0,.3.21h15.76a.34.34,0,0,0,.31-.21l3.22-9.28A.28.28,0,0,0,317.79,3.05Z"/></g></g></svg>