<?xml version="1.0" encoding="UTF-8"?>
<svg width="23px" height="22px" viewBox="0 0 23 22" version="1.1" xmlns="http://www.w3.org/2000/svg" xmlns:xlink="http://www.w3.org/1999/xlink">
    <!-- Generator: Sketch 53.2 (72643) - https://sketchapp.com -->
    <title>Group 6</title>
    <desc>Created with Sketch.</desc>
    <g id="Website" stroke="none" stroke-width="1" fill="none" fill-rule="evenodd">
        <g id="Artboard" transform="translate(-231.000000, -1415.000000)">
            <g id="Group-6" transform="translate(229.500158, 1415.000000)">
                <path d="M7.99984202,21.5 L20.999842,21.5 L20.999842,4 C20.999842,2.06700338 19.4328386,0.5 17.499842,0.5 L11.499842,0.5 C9.5668454,0.5 7.99984202,2.06700338 7.99984202,4 L7.99984202,21.5 Z" id="Rectangle" stroke="#AD810F"></path>
                <path d="M14.499842,2 L17.499842,2 C19.1566963,2 20.499842,3.34314575 20.499842,5 L20.499842,21 L11.499842,21 L11.499842,5 C11.499842,3.34314575 12.8429878,2 14.499842,2 Z" id="Rectangle" fill="#E1A817"></path>
                <rect id="Rectangle" stroke="#AD810F" fill="#F7BD28" x="10.499842" y="3" width="8" height="4" rx="1"></rect>
                <rect id="Rectangle" fill="#AD810F" x="4.49984202" y="21" width="20" height="1" rx="0.5"></rect>
                <path d="M3.5,5.46408464 C1.5,8.13075131 1.5,10.4640846 3.5,12.4640846 C5.5,14.4640846 6.00285855,16.642439 5.00857565,18.9991476" id="Path" stroke="#AD810F" stroke-linecap="round" stroke-linejoin="round" transform="translate(3.751909, 12.231616) rotate(12.000000) translate(-3.751909, -12.231616) "></path>
            </g>
        </g>
    </g>
</svg>