<?xml version="1.0" encoding="UTF-8"?>
<svg width="124px" height="147px" viewBox="0 0 124 147" version="1.1" xmlns="http://www.w3.org/2000/svg" xmlns:xlink="http://www.w3.org/1999/xlink">
    <!-- Generator: Sketch 54.1 (76490) - https://sketchapp.com -->
    <title>Group 15</title>
    <desc>Created with Sketch.</desc>
    <g id="Website" stroke="none" stroke-width="1" fill="none" fill-rule="evenodd">
        <g id="site-1" transform="translate(-1209.000000, -4053.000000)">
            <g id="Group-15" transform="translate(1210.000000, 4054.000000)">
                <g id="Group-11" fill-rule="nonzero">
                    <path d="M6,2.48689958e-13 L116,2.48689958e-13 C119.313708,2.48081239e-13 122,2.6862915 122,6 L122,116 C122,119.313708 119.313708,122 116,122 L6,122 C2.6862915,122 4.05812251e-16,119.313708 0,116 L0,6 C-4.05812251e-16,2.6862915 2.6862915,2.49298676e-13 6,2.48689958e-13 Z" id="Rectangle" stroke="#9A7719" fill="#FDE29A"></path>
                    <path d="M116,111 L112.531461,99.295259 C111.776511,96.7476461 109.435854,95 106.778735,95 L15.624496,95 C12.7805026,95 10.32721,96.996619 9.74956224,99.7813311 L6.12814975,117.239361 C6.04416326,116.839449 6,116.424882 6,116 L6,96 C6,92.6862915 8.6862915,90 12,90 L110,90 C113.313708,90 116,92.6862915 116,96 L116,111 Z" id="Combined-Shape" fill="#F8D372" transform="translate(61.000000, 103.627804) rotate(-180.000000) translate(-61.000000, -103.627804) "></path>
                    <path d="M116,25 L112.531461,13.295259 C111.776511,10.7476461 109.435854,9 106.778735,9 L15.624496,9 C12.7805026,9 10.32721,10.996619 9.74956224,13.7813311 L6.12814975,31.2393612 C6.04416326,30.839449 6,30.424882 6,30 L6,10 C6,6.6862915 8.6862915,4 12,4 L110,4 C113.313708,4 116,6.6862915 116,10 L116,25 Z" id="Combined-Shape" fill="#F8D372" transform="translate(61.000000, 17.627804) rotate(-360.000000) translate(-61.000000, -17.627804) "></path>
                    <path d="M36.6162945,64.6714182 C34.4718813,66.5281848 33.5447832,69.4275801 34.2140881,72.1840491 C34.8833929,74.9405181 37.0368844,77.091908 39.7940056,77.7585212 C42.5511268,78.4251345 45.4496154,77.4952059 47.3042875,75.3489808 L64.7907519,55.1011856 C65.1412234,54.7041845 65.705218,54.5737247 66.1944253,54.7764964 C68.9227154,55.8594157 71.8982654,56.1628759 74.788995,55.65301 C81.1156512,54.5107849 86.1493611,49.7018804 87.5792462,43.4339713 C88.0013314,41.5804717 88.0831575,39.6657073 87.8207384,37.7829558 C87.7544158,37.3188969 87.4304328,36.9327101 86.9849701,36.7867225 C86.5395074,36.6407349 86.0497933,36.7602558 85.7216706,37.0950467 L77.4301932,45.5694839 C77.1216866,45.8846407 76.6677853,46.0100034 76.2412614,45.8978543 L68.883112,43.961622 C68.4556191,43.8489678 68.1217695,43.5150713 68.0091753,43.0875626 L66.072943,35.7296586 C65.960622,35.3030512 66.0861098,34.8489898 66.4015589,34.5406041 L74.8778367,26.2497402 C75.2127991,25.9216635 75.3324317,25.4318568 75.1864236,24.9863057 C75.0404156,24.5407546 74.6540953,24.2167498 74.1899275,24.1505497 C72.3035396,23.8873788 70.385003,23.9697503 68.5281136,24.3936371 C62.2616913,25.8268635 57.4558941,30.862336 56.3165602,37.1887967 C55.8083736,40.0774476 56.1121968,43.0504711 57.1941781,45.7766174 C57.3984895,46.2641587 57.2691449,46.8276963 56.8726794,47.1773457 C53.9151363,49.7315429 41.9701077,60.0479716 36.6162945,64.6714182 Z M41.3582784,74.2918389 C39.8698123,74.2918886 38.5278847,73.3952898 37.9582505,72.0201359 C37.3886162,70.6449819 37.7034584,69.0620943 38.7559629,68.0095898 C39.8084675,66.9570853 41.3913551,66.6422431 42.766509,67.2118773 C44.141663,67.7815116 45.0382617,69.1234391 45.0382121,70.6119053 C45.0383748,71.5879794 44.6507366,72.5241299 43.960594,73.2143646 C43.2704514,73.9045992 42.3343525,74.2923623 41.3582784,74.2923298 L41.3582784,74.2918389 Z" id="Shape" fill="#EFB41F"></path>
                </g>
                <ellipse id="Oval" fill="#E8E8EE" cx="63.9753086" cy="140.302469" rx="34.1851852" ry="5.69753086"></ellipse>
            </g>
        </g>
    </g>
</svg>